<?xml version="1.0" encoding="utf-8"?>
<!-- Generator: Adobe Illustrator 19.2.1, SVG Export Plug-In . SVG Version: 6.00 Build 0)  -->
<svg version="1.1" id="Layer_1" xmlns="http://www.w3.org/2000/svg" xmlns:xlink="http://www.w3.org/1999/xlink" x="0px" y="0px"
	 viewBox="0 0 512 224" style="enable-background:new 0 0 512 224;" xml:space="preserve">
<style type="text/css">
	.st0{enable-background:new    ;}
	.st1{font-family:'UkrPlaytPSMT';}
	.st2{font-size:120px;}
	.st3{fill:none;stroke:#000000;stroke-width:9;stroke-miterlimit:10;}
	.st4{display:none;fill:none;stroke:#000000;stroke-width:9;stroke-miterlimit:10;}
</style>
<g class="st0">
	<path d="M82.9,116h-9V20.1H54.7V116h-9V20.1h-5l-2.9-9.2h45.1V116z"/>
	<path d="M144.1,51.9c0,9.4-1.9,17.2-5.7,23.2c-3.8,6-8.1,10.3-13,12.9c-4.9,2.6-9.2,4.4-13.2,5.5l-8.3,2V116h-9.2V10.9
		c4,0,7.7,0.3,11.2,0.8c3.5,0.5,7,1.6,10.8,3.2c7.6,3.1,14,7.8,19.3,14.2c5.3,6.4,8,13.9,8,22.4V51.9z M135.1,52.3
		c0-5.6-1.6-10.7-4.7-15.3s-7.1-8.4-11.7-11.2c-4.7-2.8-9.6-4.7-14.6-5.5v66.2c7.3-1.1,14.3-4.3,21-9.5
		C131.7,71.7,135.1,63.5,135.1,52.3z"/>
	<path d="M262.9,63.2c0,9.7-2.4,18.6-7.2,26.7c-4.8,8.1-11.4,14.6-19.7,19.5c-8.3,4.9-17.3,7.3-27,7.3c-9.6,0-18.5-2.4-26.7-7.1
		c-8.2-4.8-14.7-11.2-19.6-19.5c-4.9-8.2-7.4-17.2-7.4-27c0-9.6,2.4-18.6,7.1-26.9c4.8-8.3,11.3-14.9,19.6-19.7
		c8.3-4.9,17.3-7.3,26.9-7.3c9.7,0,18.7,2.4,27,7.2c8.3,4.8,14.8,11.4,19.7,19.7C260.5,44.6,262.9,53.6,262.9,63.2z M253.5,63.3
		c0-7.9-2-15.2-5.9-22c-4-6.8-9.4-12.2-16.3-16.3c-6.9-4-14.2-6-22-6c-7.9,0-15.4,2-22.3,6c-6.9,4-12.4,9.4-16.4,16.3
		c-4,6.9-6,14.3-6,22c0,7.9,2,15.1,5.9,21.9c3.9,6.7,9.4,12.2,16.4,16.3c7,4.1,14.5,6.2,22.4,6.2c7.7,0,15-2,21.9-5.9
		c6.9-3.9,12.3-9.4,16.3-16.3C251.5,78.4,253.5,71,253.5,63.3z"/>
	<path d="M327.7,116c-11.4,0-21.1-2.5-29.1-7.5c-8-5-14.1-11.5-18.3-19.5c-2-4.1-3.5-8.3-4.5-12.5c-1-4.2-1.5-8.7-1.5-13.2
		c0-9.3,2-18,6.1-26c4.1-8,10.2-14.5,18.3-19.5c8.1-5,17.8-7.5,29-7.5v9.2c-7.3,0-13.7,1.2-19.1,3.6s-10,5.6-13.6,9.7
		c-3.6,4.1-6.4,8.8-8.5,14.2c-0.9,2.8-1.7,5.5-2.2,8.1c-0.5,2.6-0.8,5.3-0.8,8.2c0,7.3,1.7,14.3,5.2,21.1
		c3.5,6.8,8.5,12.3,15.1,16.5c3.4,2,7,3.5,10.9,4.5c3.9,1,8.2,1.5,13,1.5V116z"/>
	<path d="M378.3,20.1h-11.8V116h-9.2V20.1h-11.5v-9.2h32.5V20.1z"/>
	<path d="M496.7,63.2c0,9.7-2.4,18.6-7.2,26.7c-4.8,8.1-11.4,14.6-19.7,19.5c-8.3,4.9-17.3,7.3-27,7.3c-9.6,0-18.5-2.4-26.7-7.1
		c-8.2-4.8-14.7-11.2-19.6-19.5c-4.9-8.2-7.4-17.2-7.4-27c0-9.6,2.4-18.6,7.1-26.9c4.8-8.3,11.3-14.9,19.6-19.7
		c8.3-4.9,17.3-7.3,26.9-7.3c9.7,0,18.7,2.4,27,7.2c8.3,4.8,14.8,11.4,19.7,19.7C494.3,44.6,496.7,53.6,496.7,63.2z M487.3,63.3
		c0-7.9-2-15.2-6-22c-4-6.8-9.4-12.2-16.3-16.3c-6.9-4-14.2-6-22-6c-7.9,0-15.4,2-22.3,6c-6.9,4-12.4,9.4-16.4,16.3
		c-4,6.9-6,14.3-6,22c0,7.9,2,15.1,5.9,21.9c3.9,6.7,9.4,12.2,16.4,16.3c7,4.1,14.5,6.2,22.4,6.2c7.7,0,15-2,21.9-5.9
		c6.9-3.9,12.3-9.4,16.3-16.3C485.3,78.4,487.3,71,487.3,63.3z"/>
</g>
<text transform="matrix(1 0 0 1 505.4 116)" class="st1 st2"> </text>
<g class="st0">
	<path d="M101.2,185.1c0,5.8-1.4,11.2-4.3,16C94,206,90,210,85.1,212.9c-5,2.9-10.4,4.4-16.2,4.4c-5.8,0-11.1-1.4-16-4.3
		c-4.9-2.9-8.8-6.7-11.8-11.7c-2.9-4.9-4.4-10.3-4.4-16.2c0-5.8,1.4-11.1,4.3-16.1c2.9-5,6.8-8.9,11.8-11.8c5-2.9,10.4-4.4,16.1-4.4
		c5.8,0,11.2,1.4,16.2,4.3c5,2.9,8.9,6.8,11.8,11.8C99.7,174,101.2,179.4,101.2,185.1z M95.6,185.2c0-4.7-1.2-9.1-3.6-13.2
		c-2.4-4.1-5.6-7.3-9.8-9.8c-4.1-2.4-8.5-3.6-13.2-3.6c-4.8,0-9.2,1.2-13.4,3.6c-4.1,2.4-7.4,5.7-9.8,9.8c-2.4,4.2-3.6,8.6-3.6,13.2
		c0,4.7,1.2,9.1,3.5,13.1c2.4,4,5.6,7.3,9.8,9.8c4.2,2.5,8.7,3.7,13.4,3.7c4.6,0,9-1.2,13.1-3.5s7.4-5.6,9.8-9.8
		C94.4,194.2,95.6,189.8,95.6,185.2z"/>
	<path d="M165.3,216.8c-6.8,0-12.6-1.5-17.4-4.5c-4.8-3-8.4-6.9-11-11.7c-1.2-2.5-2.1-5-2.7-7.5c-0.6-2.5-0.9-5.2-0.9-7.9
		c0-5.6,1.2-10.8,3.7-15.6c2.4-4.8,6.1-8.7,11-11.7c4.9-3,10.7-4.5,17.4-4.5v5.5c-4.4,0-8.2,0.7-11.5,2.1c-3.3,1.4-6,3.4-8.1,5.8
		c-2.2,2.5-3.9,5.3-5.1,8.5c-0.6,1.7-1,3.3-1.3,4.8c-0.3,1.5-0.5,3.2-0.5,4.9c0,4.4,1,8.6,3.1,12.7c2.1,4.1,5.1,7.4,9.1,9.9
		c2,1.2,4.2,2.1,6.5,2.7c2.3,0.6,4.9,0.9,7.8,0.9V216.8z"/>
	<path d="M205.9,216.8l-5.5,0l-9.7-40.3l-9.2,40.3l-5.3,0l14.5-63.1L205.9,216.8z"/>
	<path d="M275.1,185.1c0,5.8-1.4,11.2-4.3,16c-2.9,4.9-6.8,8.8-11.8,11.7c-5,2.9-10.4,4.4-16.2,4.4c-5.8,0-11.1-1.4-16-4.3
		c-4.9-2.9-8.8-6.7-11.8-11.7c-2.9-4.9-4.4-10.3-4.4-16.2c0-5.8,1.4-11.1,4.3-16.1c2.9-5,6.8-8.9,11.8-11.8c5-2.9,10.4-4.4,16.1-4.4
		c5.8,0,11.2,1.4,16.2,4.3c5,2.9,8.9,6.8,11.8,11.8C273.6,174,275.1,179.4,275.1,185.1z M269.4,185.2c0-4.7-1.2-9.1-3.6-13.2
		c-2.4-4.1-5.6-7.3-9.8-9.8c-4.1-2.4-8.5-3.6-13.2-3.6c-4.8,0-9.2,1.2-13.4,3.6c-4.1,2.4-7.4,5.7-9.8,9.8c-2.4,4.2-3.6,8.6-3.6,13.2
		c0,4.7,1.2,9.1,3.5,13.1c2.4,4,5.6,7.3,9.8,9.8c4.2,2.5,8.7,3.7,13.4,3.7c4.6,0,9-1.2,13.1-3.5s7.4-5.6,9.8-9.8
		C268.2,194.2,269.4,189.8,269.4,185.2z"/>
	<path d="M306.6,170.2l-18.2,46.6l-6,0l18-46.6l-11.6-16.5l6.6,0L306.6,170.2z M312,216.8h-5.4v-63.1h5.4v16.4V216.8z M336.3,216.8
		l-6,0L312,170.2l11.3-16.5l6.6,0l-11.6,16.5L336.3,216.8z"/>
	<path d="M365.5,216.8h-5.4v-42.3h-11.5v42.3h-5.4v-42.3h-3l-1.8-5.5h4.8v-15.2h5.4v15.2h11.5v-15.2h5.4V216.8z"/>
	<path d="M436.5,185.1c0,5.8-1.4,11.2-4.3,16c-2.9,4.9-6.8,8.8-11.8,11.7c-5,2.9-10.4,4.4-16.2,4.4c-5.8,0-11.1-1.4-16-4.3
		c-4.9-2.9-8.8-6.7-11.8-11.7c-2.9-4.9-4.4-10.3-4.4-16.2c0-5.8,1.4-11.1,4.3-16.1c2.9-5,6.8-8.9,11.8-11.8c5-2.9,10.4-4.4,16.1-4.4
		c5.8,0,11.2,1.4,16.2,4.3c5,2.9,8.9,6.8,11.8,11.8C435.1,174,436.5,179.4,436.5,185.1z M430.9,185.2c0-4.7-1.2-9.1-3.6-13.2
		c-2.4-4.1-5.6-7.3-9.8-9.8c-4.1-2.4-8.5-3.6-13.2-3.6c-4.8,0-9.2,1.2-13.4,3.6c-4.1,2.4-7.4,5.7-9.8,9.8c-2.4,4.2-3.6,8.6-3.6,13.2
		c0,4.7,1.2,9.1,3.5,13.1c2.4,4,5.6,7.3,9.8,9.8s8.7,3.7,13.4,3.7c4.6,0,9-1.2,13.1-3.5s7.4-5.6,9.8-9.8
		C429.7,194.2,430.9,189.8,430.9,185.2z"/>
	<path d="M485.9,216.8l-5.8,0l-8.5-44.8l-7.4,13.8l-7.9-13.7l-7.2,44.8l-5.7,0l10.3-63.1l10.5,21.4l9.5-21.4L485.9,216.8z"/>
</g>
<line class="st3" x1="23" y1="11" x2="23" y2="217.3"/>
<line class="st4" x1="35" y1="132.7" x2="493.7" y2="132.7"/>
</svg>
